<svg id="Layer_1" data-name="Layer 1" xmlns="http://www.w3.org/2000/svg" viewBox="0 0 262 144"><defs><style>.cls-1{fill:none;}.cls-2,.cls-5{fill:#fff;}.cls-3{fill:#054c27;stroke-width:0.25px;}.cls-3,.cls-4,.cls-5{stroke:#fff;}.cls-4{fill:#1c1e1c;stroke-miterlimit:10;stroke-width:0.1px;}.cls-5{font-size:46.94px;stroke-width:0.1px;font-family:OratorStd, Orator Std;letter-spacing:-0.21em;}</style></defs><title>horizontal logo</title><path class="cls-1" d="M106.56,98,103.72,107a44.8,44.8,0,0,1-2.79,5.39h0l5.57,6.15-4,5.17L95.15,120a43.4,43.4,0,0,1-4.46,4.12l3.14,7.67-5.49,3.51-5.65-6.06h0a43.39,43.39,0,0,1-5.61,2.33l.32,8.29L71,141.29l-3.25-7.63h0a45.3,45.3,0,0,1-6.08.29l-2.53,7.89L52.74,141l-.44-8.28h0a44.14,44.14,0,0,1-5.8-1.82l-5.08,6.56-5.78-3,2.42-7.94a45.14,45.14,0,0,1-4.83-3.69l-7,4.42-4.41-4.79,5-6.62a43.84,43.84,0,0,1-3.28-5.12l-8.1,1.76-2.5-6,7-4.53q-.43-1.45-.76-2.94c-.22-1-.41-2-.57-3h0L10.3,94.92,10,88.41l8.07-1.87h0a43.63,43.63,0,0,1,.78-6l-7.34-3.86,1.94-6.22,8.23,1A44,44,0,0,1,24.49,66h0L18.91,59.9l4-5.18,7.39,3.76a44.23,44.23,0,0,1,4.47-4.12l-3.14-7.67,5.48-3.52,5.66,6.06a43.56,43.56,0,0,1,5.61-2.33L48,38.61l6.35-1.43,3.25,7.63h0a44.06,44.06,0,0,1,6.07-.29l2.53-7.89,6.46.83.44,8.28a44.76,44.76,0,0,1,5.8,1.82L84,41l5.78,3-2.42,7.94h0a44.49,44.49,0,0,1,4.82,3.68h0l7-4.42L103.62,56l-5,6.62a43.76,43.76,0,0,1,3.27,5.11h0L110,66l2.51,6-7,4.53q.43,1.44.76,2.94c.22,1,.41,2,.57,3l8.22,1.12.3,6.5-8.07,1.87a43.59,43.59,0,0,1-.78,6Z"/><path class="cls-2" d="M106.56,98a43.59,43.59,0,0,0,.78-6l8.07-1.87-.3-6.5-8.22-1.12c-.15-1-.34-2-.57-3s-.48-2-.76-2.94l7-4.53L110,66l-8.1,1.75h0a43.76,43.76,0,0,0-3.27-5.11l5-6.62-4.41-4.79-7,4.42h0a44.7,44.7,0,0,0-4.82-3.68h0L89.78,44,84,41l-5.08,6.56a44.76,44.76,0,0,0-5.8-1.82l-.44-8.28-6.46-.83-2.53,7.89a44.06,44.06,0,0,0-6.07.29h0l-3.25-7.63L48,38.61l.32,8.29a43.56,43.56,0,0,0-5.61,2.33l-5.66-6.06-5.48,3.52,3.14,7.67a44.23,44.23,0,0,0-4.47,4.12l-7.39-3.76-4,5.18L24.49,66h0a44,44,0,0,0-2.8,5.39l-8.23-1-1.94,6.22,7.34,3.86a43.63,43.63,0,0,0-.78,6h0L10,88.41l.3,6.51L18.52,96h0c.15,1,.34,2,.57,3s.48,2,.76,2.94l-7,4.53,2.5,6,8.1-1.76a43.84,43.84,0,0,0,3.28,5.12l-5,6.62,4.41,4.79,7-4.42a45.14,45.14,0,0,0,4.83,3.69l-2.42,7.94,5.78,3,5.08-6.56a44.14,44.14,0,0,0,5.8,1.82h0l.44,8.28,6.46.83,2.53-7.89a45.3,45.3,0,0,0,6.08-.29h0L71,141.29l6.35-1.43-.32-8.29a43.39,43.39,0,0,0,5.61-2.33h0l5.65,6.06,5.49-3.51-3.14-7.67A43.4,43.4,0,0,0,95.15,120l7.4,3.76,4-5.17-5.57-6.15h0a44.8,44.8,0,0,0,2.79-5.39L106.56,98ZM94,97.36a30.66,30.66,0,0,1-.95,3,32.27,32.27,0,0,1-21.72,20q-.76.21-1.54.38t-1.55.31A32.27,32.27,0,0,1,40,112.26a30.65,30.65,0,0,1-2.14-2.33,32.34,32.34,0,0,1-6.46-28.81,31,31,0,0,1,1-3,32.26,32.26,0,0,1,21.71-20q.76-.21,1.54-.38t1.55-.31a32.27,32.27,0,0,1,28.18,8.81c.75.74,1.47,1.51,2.14,2.32,1.33,1.6,7.54.17,9.19,1.9,2.3,2.4,0,8,.64,11.07C98.51,86.7,95.23,92.55,94,97.36Z"/><path class="cls-3" d="M84.27,58.43l123.68-.16s12-.47,18.52,10.31c5.66,9.41,24.35,44.59,25,46.32s1.52,3-3,2.83c-1.31-.06-49.58,0-49.58,0a1.5,1.5,0,0,1-1.3-2c.43-1.74,4-11.26,4.35-12,.87-1.74,1.35-2.9,3.74-2.9,1.48,0,9.68.13,11.47.06a1.82,1.82,0,0,0,1.51-2.81c-1.79-3.46-10-18.16-11.4-20.72-.43-.79-1.77-5.11-9.87-5.15-8.48,0-65.23,0-65.23,0-8-.66-9.35,5.22-11.31,10.22C120.61,83,107.13,115,106.66,116a2.54,2.54,0,0,1-3,1.74c-1.3-.13-20,0-20.66,0s-.87-1.08,0-2.83S96.65,81.84,97.74,79s-.43-7.83-3.92-7.83H78s-2.39.65-1.09-2.83c.34-.91,1.63-4.79,2.39-6.3,1.09-2.18.66-3.63,5-3.63Z"/><path class="cls-3" d="M159.83,79.24s17.61,8.31,19.08,9c2.49,1.11,6.6,2.89,2.76,12.4s-4.61,11.41-5.59,13.21-1.47,3.42-7.34,3.75c-4.57.25-52,.32-52.95.32s-4.57,0-3.26-2.93c.78-1.74,2.61-9.13,3.59-11.25s1.47-1.79,3.43-1.79h34.57c7,0,7.18-2.77,4.89-4.07-3.81-2.19-21.2-10-23-11.1s-3.92-1.3-3.92-4.07c0-1.51.3-5.59.43-7.33a1,1,0,0,1,.55-.76h24.68s.76.11.76.76-.32,3.09,1.31,3.91Z"/><path class="cls-3" d="M184.45,74.51h14.19c1.54,0,8,6.14,6.08,11.47-2.21,6-11.41,28.7-11.74,29.36s-.55,2.28-2.06,2.28c-1,0-10.29,0-11-.05-1.8-.08-.33-1.37.33-2.61.76-1.44,5.94-13.7,6.72-16.24,1-3.15,1.12-7.55-.14-9.39a12.07,12.07,0,0,0-4.5-4.17c-.32-.26-1-.4-.76-1.52.37-2,1.45-6.2,1.87-8.08.33-1.47,1-1,1-1Z"/><path class="cls-4" d="M118.08,47.19c-1-1.68-3.19-1.28-5.36-1.06-3.17.09-6.36.06-9.53-.12a5.3,5.3,0,0,1-1.24-.06c-.07,0-1.82-.28-2.73-.5a34,34,0,0,0,.71-3.36,3.67,3.67,0,0,0,0-.56c-.08-1.09-.87-1.82-1.27-2.63-.15-.3-.67-1-.77-1.2a22.69,22.69,0,0,1-1.94-4c-.34-1.4-1.29-4.67-1.61-6.47,0-1-.32-2.27,0-3.26a7.82,7.82,0,0,0,3.35,1.41,13,13,0,0,1,3.23.4c.91.41,1.39,1.89,2.15,2.3.49.26,1.08.1,1.83.24.91.17,1.75,1,2.52.68,1.22-.45,1.61-1.78,2.14-3,.43-1,1-1.44.85-2.44-.65-1.22-1.92-1.67-3-2.44-.83-.59-1.19-1-2.22-1.79-.87-1-1.83-2.33-2.74-3.34C101,14.2,100,12.13,98.45,10.5a4.32,4.32,0,0,0-.78-.65c1.49-.64,3.11-1.16,3.49-2.84a5.55,5.55,0,0,1-3.73,1.18,2,2,0,0,0,.74-2.1A4.69,4.69,0,0,0,97,4.61a3.66,3.66,0,0,0-2.21-1.12c.63.86,1.81,2.29,1,3.48a3.53,3.53,0,0,1-1.91,1,4.79,4.79,0,0,0,1.31-2.54c0-1.1-1.29-2.2-1.79-2.74-.1-.11-.41-.51-.7-.57,0,.61.57.76.68,1.37.28,1.53-.7,2.38-1.76,3a22.42,22.42,0,0,0-1.68-2.27,2.41,2.41,0,0,0-2.45-1.15c-.32.83,0,1.15,0,1.94,0,.13-.06,1.56,0,1.74-6.62.23-10.42,4.6-15.85,6-.68.18-1.33.42-2,.53-1.12.19-2.64,0-3.84.47,2.78.35,5.16,2.11,8.36,1.63-1.44.89-3.92,1-5.5,1.5A14.44,14.44,0,0,0,65,18.54a19.55,19.55,0,0,0-4.11,3.78c1.4-.88,2.79-2,4.71-2.27,1.63-.2,3.21.47,4.89.52a16.8,16.8,0,0,1-4.88,3.55c-2.13.8-3.61.55-4.88.88,2.41,2,7.65,1.73,10.69.53a13.88,13.88,0,0,1-.85,1.13c-.67,1.06-1.69,2.22-2.52,3.3a22.22,22.22,0,0,1-3.17,4.13c-1.76,1.66-4.82,2.79-6,4.52C60.51,36.7,64,36.87,67,36.26a22.12,22.12,0,0,0,3.93-1.44c-1.06,2.32-2.27,5-4.93,5.71-.46.12-1.29.06-1.64.48a14.28,14.28,0,0,0,7.07-1.25,10.37,10.37,0,0,1-1.43,4c-.9,1.74-2.54,2.82-4,3.9a27.22,27.22,0,0,1-5.37,2.8c-2.71,1.24-5.87,2-8.18,3.7a29.32,29.32,0,0,0-3.9,3.77c-1.21,1.39-2.3,3.65-3.52,4.9-.83.54-1,.57-1.53,1A29.43,29.43,0,0,1,38.92,66c-4.44,1.88-8.6,3.89-10.13,8.55a23.28,23.28,0,0,0-.58,4.13A11.49,11.49,0,0,0,29,82.59c.41,1.15,1.1,2.24,1.43,3.51A17.1,17.1,0,0,1,30.35,95a10.91,10.91,0,0,1-1.53,3.52c-.54.61-1.39,1-1.85,1.71a4.82,4.82,0,0,0,4-1.78,32.48,32.48,0,0,1-.49,4.51c-.22.83-.74,1.48-.43,2.43.87-1.84,2.12-3.32,2.83-5.3a22.64,22.64,0,0,1,.29,6,25.21,25.21,0,0,1-2.1,5.49,30.36,30.36,0,0,0,4.51-5.87c-.33,4.41-1.3,8.27-3.9,11.48.61,0,1.06-.73,1.49-1.11,3.12-2.76,5.8-6,6.67-10.81a2.79,2.79,0,0,1,.1-.68,19.65,19.65,0,0,1,.52,4.22,25.18,25.18,0,0,0,2.2-14c1.11,1.39,1.52,3.35,2.29,5a38,38,0,0,0-1.4-11.64c1.3.82,1.62,3.05,2.13,4.33.22-4.36-1.25-8-2.7-11.26-.3-.58-.68-1.21-1.08-2s-.68-1.55-1.05-2.38a10.52,10.52,0,0,1-1.2-4.2c0-1.72,1-3.5,2.67-3.69,1.16-.13,1.26.8,1.46,1.73a14.12,14.12,0,0,0,1.11,2.93c1.81,3.9,5.42,7.14,6.69,11.47A18.58,18.58,0,0,1,52.31,88a13.23,13.23,0,0,1-.71,4.09c-.34,1.27-1.07,2.52-.55,3.75a18.33,18.33,0,0,0,1.44,2.45c.52.81,1,1.65,1.48,2.45a25.82,25.82,0,0,1,2.16,4.88,19.09,19.09,0,0,1,.71,2.48,15.88,15.88,0,0,1,.46,6.13c-.71,1.77,1.41,2.21,1.94,3.45.62,1.45-.41,2.94-.19,4.37.1.69,2,.74,2.78.8s2.05.27,2.93.24a9.74,9.74,0,0,0,2.41-.21c1-.33.34-2.68.18-3.48a24.39,24.39,0,0,0-2.39-5.55c-.71-1.5-.89-3.3-1.56-4.9-.35-.83-.65-1.75-1-2.59a73.68,73.68,0,0,1-2.06-7.09c.44-1.22.81-2.19,1.18-3.46a15.17,15.17,0,0,1,.84-2.11c.76-1.6,1.61-3,2.39-4.48.55-1,.94-2.24,1.45-3.39a25,25,0,0,0,2-5.23A11.66,11.66,0,0,0,68,74.64c-.39-1.3-1.07-2.85-.22-4.06,8.33-1.89,14.34-5.64,20-9.94A19.65,19.65,0,0,1,89.42,59c.34-.33.76-.65,1.07-1s1.17-1.8,1.67-2a10.1,10.1,0,0,1,1.31,0,8.59,8.59,0,0,0,1.43-.3c1.15-.39,1.72-1.2,2.92-1.41,4.48-.79,8.64-1.34,13.1-2.09.14.56.95.87,1,1.53.11,1-.54,2.29-.78,3.37-.54,2.44-1.18,5.67-2.24,7.66-.37.44-1,.94-.88,1.55s1.07.51,1.13.89c.13.82-1.65.6-2.43.67-.82.64-.91,2.47-1,3.63a14.89,14.89,0,0,0,.48,5.62c1.15.29,2.36-.91,3.08-1.67,1.1-1.16,2.1-2.53,3.23-3.62.4-.39,1-.55,1.37-.93,1.8-1.68.37-5.44,1.48-7.84a50.91,50.91,0,0,1,2.26-8.59c.66-1.64,1.4-3.37,1.23-5A3.93,3.93,0,0,0,118.08,47.19Z"/><text class="cls-5" transform="translate(118.29 53.26) scale(0.75 1)">l.r.h.s</text></svg>